<svg width="45" height="46" viewBox="0 0 45 46" fill="none" xmlns="http://www.w3.org/2000/svg">
<g clip-path="url(#clip0_6099_9837)">
<path fill-rule="evenodd" clip-rule="evenodd" d="M5.42927 0.599976C4.54785 0.599976 3.83331 1.31451 3.83331 2.19593V43.804C3.83331 44.6854 4.54785 45.4 5.42927 45.4H39.5707C40.4521 45.4 41.1666 44.6854 41.1666 43.804V2.19593C41.1666 2.19389 41.1666 2.19186 41.1666 2.18982V8.06664L33.7 0.599976H5.42927Z" fill="#E4E7EC"/>
<path fill-rule="evenodd" clip-rule="evenodd" d="M33.7 0.599976V8.06664H41.1666L33.7 0.599976Z" fill="#98A2B3"/>
<rect x="1.96661" y="19.2667" width="41.0667" height="18.6667" rx="1.59595" fill="black"/>
<path d="M10.7916 33.2428V23.9573H14.2737C14.987 23.9573 15.5855 24.0903 16.0692 24.3563C16.5558 24.6223 16.923 24.988 17.1709 25.4535C17.4218 25.9159 17.5472 26.4419 17.5472 27.0313C17.5472 27.6268 17.4218 28.1557 17.1709 28.6182C16.92 29.0806 16.5498 29.4449 16.0601 29.7109C15.5704 29.9738 14.9674 30.1053 14.251 30.1053H11.9433V28.7225H14.0243C14.4415 28.7225 14.783 28.6499 15.049 28.5048C15.315 28.3597 15.5115 28.1603 15.6384 27.9064C15.7684 27.6525 15.8334 27.3608 15.8334 27.0313C15.8334 26.7018 15.7684 26.4117 15.6384 26.1608C15.5115 25.9099 15.3135 25.7149 15.0445 25.5759C14.7785 25.4338 14.4354 25.3628 14.0153 25.3628H12.4737V33.2428H10.7916Z" fill="white"/>
<path d="M22.1549 33.2428H19.0083V23.9573H22.2183C23.1402 23.9573 23.9322 24.1432 24.5941 24.515C25.2591 24.8837 25.7699 25.4142 26.1266 26.1064C26.4833 26.7986 26.6616 27.6268 26.6616 28.591C26.6616 29.5582 26.4818 30.3895 26.1221 31.0847C25.7654 31.7799 25.25 32.3134 24.576 32.6851C23.905 33.0569 23.0979 33.2428 22.1549 33.2428ZM20.6904 31.7874H22.0732C22.7201 31.7874 23.2596 31.6695 23.6919 31.4338C24.1241 31.195 24.449 30.8398 24.6667 30.3683C24.8843 29.8937 24.9931 29.3013 24.9931 28.591C24.9931 27.8807 24.8843 27.2912 24.6667 26.8227C24.449 26.3512 24.1271 25.9991 23.7009 25.7663C23.2778 25.5306 22.7518 25.4127 22.1231 25.4127H20.6904V31.7874Z" fill="white"/>
<path d="M28.2598 33.2428V23.9573H34.2084V25.3673H29.9419V27.8882H33.8003V29.2983H29.9419V33.2428H28.2598Z" fill="white"/>
</g>
<defs>
<clipPath id="clip0_6099_9837">
<rect width="44.8" height="44.8" fill="white" transform="translate(0.0999756 0.599976)"/>
</clipPath>
</defs>
</svg>
