<svg width="57" height="57" viewBox="0 0 57 57" fill="none" xmlns="http://www.w3.org/2000/svg">
<circle cx="28.5" cy="28.5" r="28" fill="#E7F6EC"/>
<path fill-rule="evenodd" clip-rule="evenodd" d="M28.5 41.625C35.7487 41.625 41.625 35.7487 41.625 28.5C41.625 21.2513 35.7487 15.375 28.5 15.375C21.2513 15.375 15.375 21.2513 15.375 28.5C15.375 35.7487 21.2513 41.625 28.5 41.625ZM33.86 26.6588C34.4539 26.1148 34.4944 25.1923 33.9505 24.5984C33.4065 24.0044 32.484 23.9639 31.89 24.5079L26.5058 29.4391L25.11 28.1608C24.516 27.6168 23.5935 27.6573 23.0496 28.2513C22.5056 28.8452 22.5461 29.7677 23.14 30.3117L25.5208 32.4921C26.0782 33.0026 26.9333 33.0026 27.4907 32.4921L33.86 26.6588Z" fill="#0F973D"/>
</svg>
