<svg width="57" height="57" viewBox="0 0 57 57" fill="none" xmlns="http://www.w3.org/2000/svg">
<circle cx="28.5" cy="28.5" r="28" fill="#FBEAE9"/>
<path fill-rule="evenodd" clip-rule="evenodd" d="M18.3595 33.3739L25.7226 19.6387C26.8938 17.4538 30.1062 17.4538 31.2774 19.6386L38.6405 33.3739C39.7286 35.4039 38.2155 37.8333 35.863 37.8333H21.137C18.7845 37.8333 17.2714 35.4039 18.3595 33.3739ZM28.5 21.5C29.1443 21.5 29.6667 22.0223 29.6667 22.6667V30.8333C29.6667 31.4777 29.1443 32 28.5 32C27.8557 32 27.3333 31.4777 27.3333 30.8333V22.6667C27.3333 22.0223 27.8557 21.5 28.5 21.5ZM27.0417 34.0417C27.0417 34.8471 27.6946 35.5 28.5 35.5C29.3054 35.5 29.9583 34.8471 29.9583 34.0417C29.9583 33.2363 29.3054 32.5833 28.5 32.5833C27.6946 32.5833 27.0417 33.2363 27.0417 34.0417Z" fill="#D42620"/>
</svg>
